<svg xmlns="http://www.w3.org/2000/svg" version="1.1" xmlns:xlink="http://www.w3.org/1999/xlink" xmlns:svgjs="http://svgjs.dev/svgjs" viewBox="0 0 800 800"><defs><linearGradient x1="50%" y1="0%" x2="50%" y2="100%" id="uundulate-grad"><stop stop-color="hsl(37, 99%, 67%)" stop-opacity="1" offset="45%"></stop><stop stop-color="hsl(316, 73%, 52%)" stop-opacity="1" offset="100%"></stop></linearGradient></defs><g stroke-width="2" stroke="hsl(265, 55%, 20%)" fill="none"><path d="M669.3526199550403 232.38384229270702C703.9464302768422 350.28140933425846 572.8215520883455 637.2266357394385 461.04243647898465 688.2364126502147C349.2633208696236 739.2461895609907 167.40667535191096 595.1283385059836 132.81286503010892 477.2307714644321C98.21905470830689 359.3332044228807 183.2130313249745 173.33786776154278 294.99214693433544 122.32809085076667C406.77126254369637 71.31831393999056 634.7588096332381 114.48627525115558 669.3526199550403 232.38384229270702C703.9464302768422 350.28140933425846 572.8215520883455 637.2266357394385 461.04243647898465 688.2364126502147 "></path><path d="M657.1093134993424 240.00274884199092C690.1306778974262 352.5413355634719 564.9660214447701 626.4435971320527 458.2677747267438 675.1347478196118C351.5695280087175 723.8258985071708 177.97909365090078 586.2588588637549 144.95772925281705 473.720272142274C111.93636485473326 361.1816854207931 193.066978897916 183.64068224406145 299.7652256159423 134.9495315565024C406.46347233396864 86.25838086894339 624.0879491012586 127.46416212050997 657.1093134993424 240.00274884199092C690.1306778974262 352.5413355634719 564.9660214447701 626.4435971320527 458.2677747267438 675.1347478196118 "></path><path d="M644.8659917848554 247.62165539127483C676.3149102592209 354.8012617926852 557.1104755424058 615.6605585246672 455.49309771571393 662.0330829890091C353.8757198890222 708.405607453351 188.55149669110153 577.3893792215263 157.1025782167361 470.20977282011586C125.65365974237062 363.03016641870545 202.9209112120684 193.94349672658012 304.53828903876024 147.57097226223817C406.15566686545196 101.19844779789622 613.41707331049 140.44204898986442 644.8659917848554 247.62165539127483C676.3149102592209 354.8012617926852 557.1104755424058 615.6605585246672 455.49309771571393 662.0330829890091 "></path><path d="M632.6226853291575 255.2406534932931C662.4991578798048 357.061279574633 549.2549448988303 604.8776114700158 452.7184359634732 648.9315097111406C356.181927028116 692.9854079522655 199.1239149900914 568.5199911320319 169.24744243944423 466.6993650506921C139.370969888797 364.8787389693523 212.77485878500994 204.2464027618331 309.3113677203671 160.19250452070827C405.84787665572435 116.13860627958348 602.7462127785104 153.42002741195324 632.6226853291575 255.2406534932931C662.4991578798048 357.061279574633 549.2549448988303 604.8776114700158 452.7184359634732 648.9315097111406 "></path><path d="M620.3794093910378 262.85952952499895C648.6834360179668 359.32117528626827 541.3994447728331 594.0945423450519 449.9438047288105 635.8298143629597C358.488164684788 677.5650863808675 209.69636380665935 559.6504809722252 181.39233717973042 463.18883521095586C153.08831055280154 366.7271894496864 222.62883687552954 214.54918672677366 314.0844769195521 172.81391470886592C405.54011696357475 131.0786426909582 592.0753827641089 166.39788376372957 620.3794093910378 262.85952952499895C648.6834360179668 359.32117528626827 541.3994447728331 594.0945423450519 449.9438047288105 635.8298143629597 "></path><path d="M608.136118194129 270.478466591861C634.8676988973398 361.5811320330598 533.5439293880468 583.3115342552444 447.16915823535885 622.728180049935C360.7943870826708 662.1448258446256 220.26879736443829 550.7810318475747 193.5372166612276 459.67836640637574C166.80563595801698 368.575700965177 232.48279970726014 224.85203172687045 318.8575708599481 185.43538593217977C405.2323420126361 146.01874013748915 581.4045374909184 179.37580115066208 608.136118194129 270.478466591861C634.8676988973398 361.5811320330598 533.5439293880468 583.3115342552444 447.16915823535885 622.728180049935 "></path><path d="M595.8928117384312 278.0973731411449C621.0519465179236 363.84105826227324 525.6883987444714 572.5284956478587 444.394496483118 609.6265152193323C363.1005942217646 646.7245347908058 230.8412156634281 541.911552205346 205.68208088393573 456.16786708421773C180.52294610444335 370.4241819630894 242.33674728020162 235.15484620938906 323.63064954155504 198.05682663791555C404.92455180290847 160.95880706644198 570.7336769589389 192.35368802001653 595.8928117384312 278.0973731411449C621.0519465179236 363.84105826227324 525.6883987444714 572.5284956478587 444.394496483118 609.6265152193323 "></path><path d="M583.6495052827333 285.7162796904288C607.2361941385075 366.10098449148654 517.8328681008961 561.745457040473 441.6198347308773 596.5248503887294C365.4068013608585 631.3042437369859 241.41363396241798 533.0420725631174 217.82694510664385 452.6573677620595C194.24025625086978 372.27266296100174 252.1906948531431 245.45766069190773 328.4037282231619 210.67826734365127C404.61676159318074 175.89887399539487 560.0628164269592 205.33157488937098 583.6495052827333 285.7162796904288C607.2361941385075 366.10098449148654 517.8328681008961 561.745457040473 441.6198347308773 596.5248503887294 "></path><path d="M571.4061988270355 293.3351862397127C593.4204417590913 368.36091072069996 509.9773374573208 550.9624184330872 438.84517297863647 583.4231855581265C367.71300849995225 615.883952683166 251.9860522614078 524.1725929208887 229.97180932935197 449.14686843990137C207.95756639729615 374.1211439589141 262.04464242608464 255.76047517442635 333.17680690476885 223.29970804938705C404.3089713834531 190.8389409243477 549.3919558949797 218.30946175872543 571.4061988270355 293.3351862397127C593.4204417590913 368.36091072069996 509.9773374573208 550.9624184330872 438.84517297863647 583.4231855581265 "></path><path d="M559.1629076301267 300.95412330657473C579.6047046384642 370.6208674674915 502.1218220725344 540.1794103432796 436.0705264851848 570.321551245102C370.0192308978351 600.4636921469242 262.5584858191867 515.3031437962381 242.11668881084915 445.63639963532137C221.67489180251158 375.9696554744046 271.8986052578152 266.06332017452314 337.94990084516485 235.9211792727009C404.00119643251446 205.77903837087865 538.7211106217892 231.28737914565795 559.1629076301267 300.95412330657473C579.6047046384642 370.6208674674915 502.1218220725344 540.1794103432796 436.0705264851848 570.321551245102 "></path><path d="M546.9196011744289 308.57302985585864C565.7889522590482 372.8807936967049 494.266291428959 529.396371735894 433.295864732944 557.2198864144991C372.3254380369289 585.0434010931044 273.13090411817655 506.43366415400953 254.26155303355728 442.12590031316336C235.392201948938 377.81813647231706 281.75255283075666 276.3661346570418 342.7229795267717 248.54261997843668C403.69340622278685 220.71910529983148 528.0502500898097 244.2652660150124 546.9196011744289 308.57302985585864C565.7889522590482 372.8807936967049 494.266291428959 529.396371735894 433.295864732944 557.2198864144991 "></path><path d="M534.676294718731 316.19193640514254C551.973199879632 375.1407199259183 486.4107607853837 518.6133331285083 430.52120298070326 544.1182215838965C374.63164517602274 569.6231100392845 283.7033224171664 497.5641845117809 266.4064172562654 438.6154009910051C249.10951209536438 379.6666174702294 291.6065004036982 286.6689491395605 347.49605820837866 261.1640606841724C403.3856160130591 235.6591722287843 517.37938955783 257.24315288436685 534.676294718731 316.19193640514254C551.973199879632 375.1407199259183 486.4107607853837 518.6133331285083 430.52120298070326 544.1182215838965 "></path><path d="M522.4329882630332 323.8108429544265C538.157447500216 377.40064615513165 478.55523014180835 507.8302945211226 427.74654122846243 531.0165567532936C376.9378523151166 554.2028189854645 294.27574071615624 488.6947048695522 278.5512814789735 435.104901668847C262.82682224179075 381.5150984681418 301.46044797663967 296.9717636220791 352.2691368899856 273.7855013899082C403.07782580333145 250.5992391577372 506.70852902585045 270.2210397537213 522.4329882630332 323.8108429544265C538.157447500216 377.40064615513165 478.55523014180835 507.8302945211226 427.74654122846243 531.0165567532936 "></path><path d="M510.18971232491344 331.4297495037104C524.341725638378 379.6605723843451 470.69973001581116 497.0472559137369 424.9719099937998 517.9148919226908C379.2440899717885 538.7825279316446 304.84818953272423 479.8252252273235 290.69617621925977 431.59440234668887C276.5441629057953 383.36357946605415 311.31442606715933 307.27457810459777 357.0422460891706 286.4069420956439C402.7700661111819 265.53930608669003 496.0376990114489 283.1989266230757 510.18971232491344 331.4297495037104C524.341725638378 379.6605723843451 470.69973001581116 497.0472559137369 424.9719099937998 517.9148919226908 "></path><path d="M497.9464058692156 339.04868657057244C510.5259732589618 381.9205291311366 462.8441993722357 486.2642478239293 422.197248241559 504.81325760966615C381.5502971108823 523.3622673954029 315.42060783171405 470.955776102673 302.8410404419679 428.08393354210887C290.2614730522217 385.2120909815447 321.1683736401008 317.57742310469456 361.8153247707775 299.02841331895775C402.46227590145423 280.479403533221 485.3668384794694 296.17684401000827 497.9464058692156 339.04868657057244C510.5259732589618 381.9205291311366 462.8441993722357 486.2642478239293 422.197248241559 504.81325760966615 "></path><path d="M485.7030841547287 346.6676083786454C496.7102056207566 384.18047061913904 454.98865346987134 475.48122447533274 419.4225712305292 491.71160803785233C383.85648899118706 507.94199160037203 325.99301087191486 462.08631171923344 314.98588940588695 424.57344947873975C303.978767939859 387.0605872382461 331.0223059542532 327.88025284600224 366.5883881935954 311.6498692834826C402.1544704329375 295.4194857209629 474.6959626887008 309.1547461381518 485.7030841547287 346.6676083786454C496.7102056207566 384.18047061913904 454.98865346987134 475.48122447533274 419.4225712305292 491.71160803785233 "></path><path d="M473.45980821660896 354.2865149279293C482.89448375891857 386.44039684835246 447.133153343874 464.698185867947 416.6479399958665 478.60994320724956C386.162726647859 492.5217005465522 336.5654596884828 453.21683207700477 327.13078414617314 421.0629501565817C317.69610860386354 388.90906823615853 340.8762840447729 338.1830673285209 371.3614973927804 324.2713099892183C401.84671074078796 310.35955264991577 464.02513267429936 322.13263300750623 473.45980821660896 354.2865149279293C482.89448375891857 386.44039684835246 447.133153343874 464.698185867947 416.6479399958665 478.60994320724956 "></path><path d="M461.2165017609111 361.9054367360023C469.0787313795025 388.7003383363549 439.2776227002987 453.91516251935036 413.87327824362575 465.50829363543585C388.4689337869528 477.10142475152134 347.1378779874727 444.34736769356516 339.27564836888126 417.55246609321256C331.4134187502899 390.75756449285996 350.73023161771437 348.48589706982864 376.1345760743873 336.89276595374315C401.5389205310603 325.29963483765766 453.35427214231976 335.1105351356497 461.2165017609111 361.9054367360023C469.0787313795025 388.7003383363549 439.2776227002987 453.91516251935036 413.87327824362575 465.50829363543585 "></path><path d="M448.97319530521327 369.5243432852862C455.2629790000864 390.9602645655683 431.42209205672333 443.13212391196464 411.098616491385 452.4066288048331C390.7751409260466 461.68113369770145 357.7102962864625 435.4778880513365 351.4205125915894 414.04196677105443C345.13072889671633 392.6060454907723 360.58417919065585 358.78871155234725 380.9076547559942 349.5142066594789C401.23113032133256 340.2397017666105 442.68341161034016 348.08842200500413 448.97319530521327 369.5243432852862C455.2629790000864 390.9602645655683 431.42209205672333 443.13212391196464 411.098616491385 452.4066288048331 "></path><path d="M436.7298888495154 377.1432650933592C441.4472266206702 393.22020605357073 423.56656141314795 432.34910056336804 408.3239547391442 439.3049792330193C393.08134806514045 446.26085790267064 368.28271458545237 426.6084236678969 363.5653768142975 410.53148270768537C358.8480390431427 394.4545417474738 370.4381267635974 369.091541293655 385.68073343760113 362.1356626240037C400.9233401116049 355.1797839543524 432.0125510783606 361.06632413314765 436.7298888495154 377.1432650933592C441.4472266206702 393.22020605357073 423.56656141314795 432.34910056336804 408.3239547391442 439.3049792330193 "></path><path d="M424.4866129113957 384.7621716426431C427.63150475883225 395.48013228278415 415.71106128715076 421.5660619559823 405.54932350448155 426.20331440241654C395.3875857218124 430.8405668488507 378.8551634020203 417.7389440256683 375.71027155458376 407.0209833855272C372.5653797071472 396.30302274538616 380.292104854117 379.39435577617365 390.4538426367862 374.75710332973944C400.61558041945534 370.1198508833053 421.34172106395914 374.0442110025021 424.4866129113957 384.7621716426431C427.63150475883225 395.48013228278415 415.71106128715076 421.5660619559823 405.54932350448155 426.20331440241654 "></path><path d="M412.2432911969088 392.3810934507161C413.81573712062703 397.7400737707866 407.8555153847863 410.7830386073857 402.7746464934517 413.1016648306028C397.6937776021171 415.4202910538199 389.4275664422211 408.86947964222867 387.8551205185028 403.5104993221581C386.28267459478457 398.15151900208764 390.14603716826946 389.69718551748133 395.226906059604 387.3785592942643C400.3077749509386 385.05993307104717 410.67084527319054 387.02211313064555 412.2432911969088 392.3810934507161C413.81573712062703 397.7400737707866 407.8555153847863 410.7830386073857 402.7746464934517 413.1016648306028 "></path></g></svg>